<?xml version="1.0" encoding="UTF-8"?>
<svg id="Calque_1" data-name="Calque 1" xmlns="http://www.w3.org/2000/svg" viewBox="0 0 863.44 246.95">
  <defs>
    <style>
      .cls-1 {
        fill: #386641;
        stroke: #006837;
      }

      .cls-1, .cls-2 {
        stroke-miterlimit: 10;
      }

      .cls-3 {
        fill: #6a994e;
      }

      .cls-2 {
        fill: #bc4749;
        stroke: #bc4749;
        stroke-width: 2px;
      }
    </style>
  </defs>
  <g>
    <path class="cls-2" d="M285.16,234.63c-4.12,0-7.94-.63-11.45-1.89-3.51-1.26-6.69-3.18-9.55-5.75-2.86-2.57-5.41-5.75-7.65-9.54l8.03-10.74c3.54,5.89,6.95,9.98,10.2,12.25,3.26,2.27,7.13,3.41,11.61,3.41,2.75,0,5.25-.5,7.49-1.51,2.24-1.01,4.02-2.4,5.32-4.17,1.3-1.77,1.95-3.79,1.95-6.06,0-1.52-.22-2.95-.65-4.29-.43-1.35-1.1-2.57-2.01-3.66-.91-1.09-2.06-2.1-3.47-3.03-1.41-.92-3.06-1.75-4.94-2.46-1.88-.71-4.05-1.33-6.51-1.83-3.91-.92-7.31-2.15-10.2-3.66-2.9-1.52-5.32-3.41-7.27-5.68-1.95-2.27-3.4-4.86-4.34-7.77-.94-2.9-1.41-6.17-1.41-9.79s.67-6.82,2.01-9.85c1.34-3.03,3.18-5.66,5.54-7.89,2.35-2.23,5.12-3.96,8.3-5.18,3.18-1.22,6.62-1.83,10.31-1.83,3.91,0,7.49.59,10.75,1.77,3.26,1.18,6.15,2.93,8.68,5.24,2.53,2.32,4.63,5.16,6.3,8.52l-8.25,9.47c-1.45-2.78-3.08-5.12-4.88-7.01-1.81-1.89-3.8-3.33-5.97-4.29-2.17-.97-4.49-1.45-6.95-1.45-2.82,0-5.28.5-7.38,1.52-2.1,1.01-3.75,2.42-4.94,4.23-1.19,1.81-1.79,3.94-1.79,6.38,0,1.77.29,3.39.87,4.86.58,1.47,1.47,2.78,2.66,3.92,1.19,1.14,2.8,2.15,4.83,3.03,2.03.88,4.45,1.66,7.27,2.34,3.98,1.01,7.53,2.29,10.64,3.85,3.11,1.56,5.75,3.39,7.92,5.49,2.17,2.11,3.82,4.46,4.94,7.07,1.12,2.61,1.68,5.43,1.68,8.46,0,5.64-1.12,10.53-3.37,14.65-2.24,4.13-5.43,7.31-9.55,9.54-4.12,2.23-9.05,3.35-14.76,3.35Z"/>
    <path class="cls-2" d="M349.64,234.63c-4.71,0-8.99-1.52-12.86-4.55-3.87-3.03-6.97-7.16-9.28-12.38-2.32-5.22-3.47-11.11-3.47-17.68s1.18-12.57,3.53-17.74c2.35-5.18,5.54-9.24,9.55-12.19,4.02-2.95,8.52-4.42,13.51-4.42,2.97,0,5.68.5,8.14,1.52,2.46,1.01,4.61,2.42,6.46,4.23,1.85,1.81,3.37,3.9,4.56,6.25,1.19,2.36,1.94,4.88,2.23,7.58l-2.5-1.01v-17.18h11.29v66.31h-11.29v-15.79l2.61-.88c-.43,2.27-1.32,4.48-2.66,6.63-1.34,2.15-3.04,4.06-5.1,5.75-2.06,1.69-4.34,3.03-6.84,4.04-2.5,1.01-5.12,1.52-7.87,1.52ZM352.57,222.64c3.4,0,6.4-.97,9.01-2.9,2.6-1.94,4.65-4.61,6.13-8.02,1.48-3.41,2.23-7.3,2.23-11.68s-.74-8.12-2.23-11.49c-1.48-3.37-3.53-6.02-6.13-7.96-2.61-1.94-5.61-2.91-9.01-2.91s-6.28.97-8.85,2.91c-2.57,1.94-4.6,4.59-6.08,7.96-1.48,3.37-2.23,7.2-2.23,11.49s.74,8.27,2.23,11.68c1.48,3.41,3.51,6.08,6.08,8.02,2.57,1.94,5.52,2.9,8.85,2.9Z"/>
    <path class="cls-2" d="M404.78,152.42c-2.39,0-4.23-.71-5.54-2.15-1.3-1.43-1.95-3.45-1.95-6.06,0-2.44.67-4.42,2.01-5.94,1.34-1.52,3.17-2.27,5.48-2.27s4.23.72,5.54,2.15c1.3,1.43,1.95,3.45,1.95,6.06,0,2.44-.67,4.42-2.01,5.94-1.34,1.52-3.17,2.27-5.48,2.27ZM399.35,233.37v-66.31h11.18v66.31h-11.18Z"/>
    <path class="cls-2" d="M428.77,233.37v-66.31h11.18v13.64l-1.95,1.52c.72-2.95,2.13-5.66,4.23-8.15,2.1-2.48,4.59-4.5,7.49-6.06,2.89-1.56,5.86-2.34,8.9-2.34,4.34,0,7.96.99,10.85,2.97,2.89,1.98,5.06,4.99,6.51,9.03,1.45,4.04,2.17,9.14,2.17,15.28v40.42h-11.18v-39.53c0-3.79-.43-6.92-1.3-9.41-.87-2.48-2.21-4.29-4.02-5.43-1.81-1.14-4.05-1.62-6.73-1.45-2.17,0-4.16.4-5.97,1.2-1.81.8-3.38,1.92-4.72,3.35-1.34,1.43-2.39,3.09-3.15,4.99s-1.14,3.94-1.14,6.13v40.16h-11.18Z"/>
    <path class="cls-2" d="M489.66,179.7v-12.63h36.26v12.63h-36.26ZM501.5,233.37v-83.23h11.18v83.23h-11.18Z"/>
    <path class="cls-2" d="M594.95,234.63c-4.12,0-7.94-.63-11.45-1.89-3.51-1.26-6.69-3.18-9.55-5.75-2.86-2.57-5.41-5.75-7.65-9.54l8.03-10.74c3.54,5.89,6.95,9.98,10.2,12.25,3.26,2.27,7.13,3.41,11.61,3.41,2.75,0,5.25-.5,7.49-1.51,2.24-1.01,4.02-2.4,5.32-4.17,1.3-1.77,1.95-3.79,1.95-6.06,0-1.52-.22-2.95-.65-4.29-.43-1.35-1.1-2.57-2.01-3.66-.91-1.09-2.06-2.1-3.47-3.03-1.41-.92-3.06-1.75-4.94-2.46-1.88-.71-4.05-1.33-6.51-1.83-3.91-.92-7.31-2.15-10.2-3.66-2.9-1.52-5.32-3.41-7.27-5.68-1.95-2.27-3.4-4.86-4.34-7.77-.94-2.9-1.41-6.17-1.41-9.79s.67-6.82,2.01-9.85c1.34-3.03,3.18-5.66,5.54-7.89,2.35-2.23,5.12-3.96,8.3-5.18,3.18-1.22,6.62-1.83,10.31-1.83,3.91,0,7.49.59,10.75,1.77,3.26,1.18,6.15,2.93,8.68,5.24,2.53,2.32,4.63,5.16,6.3,8.52l-8.25,9.47c-1.45-2.78-3.08-5.12-4.88-7.01-1.81-1.89-3.8-3.33-5.97-4.29-2.17-.97-4.49-1.45-6.95-1.45-2.82,0-5.28.5-7.38,1.52-2.1,1.01-3.75,2.42-4.94,4.23-1.19,1.81-1.79,3.94-1.79,6.38,0,1.77.29,3.39.87,4.86.58,1.47,1.47,2.78,2.66,3.92,1.19,1.14,2.8,2.15,4.83,3.03,2.03.88,4.45,1.66,7.27,2.34,3.98,1.01,7.53,2.29,10.64,3.85,3.11,1.56,5.75,3.39,7.92,5.49,2.17,2.11,3.82,4.46,4.94,7.07,1.12,2.61,1.68,5.43,1.68,8.46,0,5.64-1.12,10.53-3.37,14.65-2.24,4.13-5.43,7.31-9.55,9.54-4.12,2.23-9.05,3.35-14.76,3.35Z"/>
    <path class="cls-2" d="M664.1,234.63c-5.86,0-11.06-1.45-15.58-4.36-4.52-2.9-8.07-6.88-10.64-11.93-2.57-5.05-3.85-10.86-3.85-17.43,0-5.22.72-9.98,2.17-14.27,1.45-4.29,3.45-8.02,6.02-11.18,2.57-3.16,5.64-5.6,9.23-7.33,3.58-1.72,7.47-2.59,11.67-2.59,3.69,0,7.13.82,10.31,2.46,3.18,1.64,5.95,3.9,8.3,6.76,2.35,2.86,4.16,6.25,5.43,10.17,1.27,3.92,1.86,8.19,1.79,12.82l-.11,5.56h-46.57l-2.5-10.36h39.4l-1.63,2.15v-3.03c-.22-2.78-1.01-5.26-2.39-7.45-1.38-2.19-3.11-3.92-5.21-5.18-2.1-1.26-4.38-1.89-6.84-1.89-3.91,0-7.2.86-9.88,2.59-2.68,1.73-4.71,4.25-6.08,7.58-1.38,3.33-2.06,7.43-2.06,12.31s.83,8.65,2.5,12.06c1.66,3.41,4.02,6.04,7.06,7.89,3.04,1.85,6.55,2.78,10.53,2.78,2.82,0,5.44-.55,7.87-1.64,2.42-1.09,5.05-3.07,7.87-5.94l5.64,9.22c-1.74,2.02-3.85,3.79-6.35,5.3-2.5,1.52-5.14,2.72-7.92,3.6-2.79.88-5.52,1.33-8.2,1.33Z"/>
    <path class="cls-2" d="M719.79,233.37l-24.1-66.31h12.05l17.37,49.63-2.06,1.14,18.56-50.77h11.51l-25.29,66.31h-8.03Z"/>
    <path class="cls-2" d="M789.37,234.63c-5.86,0-11.06-1.45-15.58-4.36-4.52-2.9-8.07-6.88-10.64-11.93-2.57-5.05-3.85-10.86-3.85-17.43,0-5.22.72-9.98,2.17-14.27,1.45-4.29,3.45-8.02,6.02-11.18,2.57-3.16,5.64-5.6,9.23-7.33,3.58-1.72,7.47-2.59,11.67-2.59,3.69,0,7.13.82,10.31,2.46,3.18,1.64,5.95,3.9,8.3,6.76,2.35,2.86,4.16,6.25,5.43,10.17,1.27,3.92,1.86,8.19,1.79,12.82l-.11,5.56h-46.57l-2.5-10.36h39.4l-1.63,2.15v-3.03c-.22-2.78-1.01-5.26-2.39-7.45-1.38-2.19-3.11-3.92-5.21-5.18-2.1-1.26-4.38-1.89-6.84-1.89-3.91,0-7.2.86-9.88,2.59-2.68,1.73-4.71,4.25-6.08,7.58-1.38,3.33-2.06,7.43-2.06,12.31s.83,8.65,2.5,12.06c1.66,3.41,4.02,6.04,7.06,7.89,3.04,1.85,6.55,2.78,10.53,2.78,2.82,0,5.44-.55,7.87-1.64,2.42-1.09,5.05-3.07,7.87-5.94l5.64,9.22c-1.74,2.02-3.85,3.79-6.35,5.3-2.5,1.52-5.14,2.72-7.92,3.6-2.79.88-5.52,1.33-8.2,1.33Z"/>
    <path class="cls-2" d="M827.47,233.37v-66.31h11.29v20.84l-1.09-5.05c.8-3.2,2.15-6.1,4.07-8.71,1.92-2.61,4.12-4.67,6.62-6.19s5.08-2.27,7.76-2.27c1.23,0,2.4.13,3.53.38,1.12.25,2.01.55,2.66.88l-2.93,14.15c-.87-.42-1.83-.78-2.88-1.07-1.05-.29-2.08-.44-3.09-.44-1.95,0-3.82.44-5.59,1.33-1.77.88-3.33,2.11-4.67,3.66-1.34,1.56-2.41,3.37-3.2,5.43-.8,2.06-1.19,4.32-1.19,6.76v36.63h-11.29Z"/>
  </g>
  <path class="cls-3" d="M178.31,237.67c-1.02-1.12-2.09-2.2-3.05-3.37-3-3.67-6-7.34-8.92-11.06-4.32-5.49-8.15-11.32-11.72-17.32-2.16-3.63-4.15-7.37-6.03-11.15-3.57-7.17-6.56-14.58-8.93-22.24-2.3-7.42-3.92-14.96-5.18-22.63-1.48-9.05-1.61-18.12-1.45-27.22.1-5.91.85-11.75,1.69-17.59.94-6.54,2.36-12.98,4.1-19.34,1.68-6.17,3.57-12.28,6.08-18.19,1-2.35,1.92-4.74,2.88-7.11,2.64-6.54,5.87-12.8,9.28-18.96,3.85-6.95,8.14-13.62,12.76-20.09.62-.87,1.33-1.67,2.17-2.41-.48,1.37-.98,2.73-1.42,4.11-.54,1.7-1.11,3.41-1.53,5.14-2.08,8.66-2.59,17.46-2.41,26.34.16,7.8,1.32,15.45,3.23,22.98,1.64,6.47,4.09,12.67,7.62,18.38,3.42,5.52,7.91,10,13.26,13.7,5.93,4.1,11.17,8.96,15.61,14.69,4.63,5.96,7.91,12.54,9.46,19.94,1.18,5.63,1.34,11.33.68,17.03-.38,3.3-.95,6.59-1.62,9.85-.45,2.18-1.23,4.29-1.99,6.87-1.39-3.22-2.53-6.13-3.89-8.94-1.42-2.93-2.94-5.84-4.65-8.61-1.67-2.72-3.56-5.32-5.51-7.85-1.99-2.58-4.08-5.1-6.3-7.49-2.17-2.34-4.49-4.57-6.86-6.71-2.43-2.18-4.97-4.23-7.53-6.26-2.49-1.98-5.05-3.86-8.13-5.49-.34,1.47-.7,2.67-.89,3.91-1.49,9.97-2.37,20-1.72,30.08.58,9.08,1.2,18.16,2.15,27.21.73,6.94,1.84,13.84,3.09,20.71,1.48,8.12,3.27,16.19,4.95,24.27.32,1.55.79,3.06,1.19,4.59l-.48.22Z"/>
  <path class="cls-2" d="M1.14,245.21c2.19-2.73,4.41-5.37,6.55-8.21,5.59-7.4,11.22-14.69,16.67-22.38,4.69-6.61,9.27-13.49,13.69-20.67,6.41-10.43,12.45-21.55,17.25-34.53,1.84-4.98,3.56-10.17,4.23-16.18.05-.43.14-.84.17-1.27.18-3.33.23-4.18-1.92-4.79-4.12-1.16-8.22-1.36-12.39-.73-11.67,1.76-22.33,8.75-32.45,18.85-.25.25-.54.4-1.05.23,1.05-2.99,2-6.11,3.18-8.93,2.49-5.93,5.3-11.35,8.49-16.16,3.46-5.22,7.14-9.87,11.06-13.91,10.48-10.83,21.29-19.45,33.47-23.37,12.54-4.03,6.46-1.43,14.77-4.48,3.51-1.29,7.1-3.05,10.39-6.02,6.2-5.59,11.74-12.88,17.01-20.87,5.41-8.2,10.36-17.23,14.78-27.12,3.43-7.66,6.47-15.78,8.72-24.95-.18,4.8-.26,9.63-.56,14.41-.37,5.94-.81,11.87-1.41,17.75-1.19,11.55-2.74,22.97-4.83,34.1-2.85,15.17-6.4,29.81-10.84,43.78-3.29,10.34-6.96,20.2-11.08,29.52-4.12,9.32-8.66,17.97-13.55,26.06-6.47,10.7-13.5,20.07-21,28.3-7.35,8.06-15.07,14.81-23.07,20.55-11.87,8.5-24.15,14.44-36.7,18.75-3.11,1.07-6.24,1.86-9.36,2.79l-.2-.52Z"/>
  <path class="cls-3" d="M199.93,96.94c-7.21-.15-12.8-2.48-16.76-7.69-4.3-5.65-5.12-11.96-1.86-18.43,3.57-7.08,9.65-10.37,17.39-10.7,6.39-.28,11.81,2.06,16.11,6.77,5.29,5.81,5.44,14.66,2.05,20.23-4.05,6.65-10.09,9.5-16.93,9.82Z"/>
  <path class="cls-2" d="M75.69,23.17c8.65-.12,20.36,5.48,24.35,18.27,2.71,8.7-.24,18-7.63,24.5-5.15,4.53-11.38,6.68-18.06,6.67-11.77-.01-23.28-7.17-25.96-19.22-3.15-6.64,1.5-18.64,7.42-23.47,5.55-4.53,11.74-6.81,19.89-6.75Z"/>
  <g>
    <path class="cls-1" d="M289.35,105.93c-5.15,0-9.88-1.07-14.18-3.2-4.31-2.13-8.04-5.19-11.22-9.17-3.18-3.98-5.63-8.68-7.36-14.1-1.73-5.42-2.59-11.37-2.59-17.86s.93-11.88,2.81-17.18c1.87-5.3,4.46-9.95,7.78-13.98,3.32-4.02,7.16-7.14,11.54-9.36,4.37-2.22,9.1-3.33,14.18-3.33,3.6,0,7.11.64,10.53,1.91,3.42,1.27,6.53,3.04,9.31,5.3,2.79,2.26,5.06,4.82,6.83,7.7l-7.62,9.24c-2.05-2.38-4.11-4.37-6.19-5.97-2.08-1.6-4.2-2.81-6.35-3.63-2.15-.82-4.32-1.23-6.51-1.23-3.46,0-6.69.76-9.69,2.28-3,1.52-5.61,3.63-7.83,6.34-2.22,2.71-3.97,5.93-5.24,9.67-1.27,3.74-1.91,7.82-1.91,12.25,0,4.68.62,8.93,1.85,12.75,1.23,3.82,2.98,7.08,5.24,9.79,2.26,2.71,4.96,4.78,8.1,6.22,3.14,1.44,6.62,2.16,10.43,2.16,2.33,0,4.62-.37,6.88-1.11,2.26-.74,4.37-1.81,6.35-3.2,1.97-1.39,3.77-3.04,5.4-4.93l5.72,10.84c-1.62,2.22-3.83,4.23-6.62,6.03-2.79,1.81-5.89,3.22-9.31,4.25-3.42,1.03-6.86,1.54-10.32,1.54Z"/>
    <path class="cls-1" d="M328.62,104.7V13.57h10.9v91.13h-10.9Z"/>
    <path class="cls-1" d="M373.92,105.93c-3.95,0-7.39-1.07-10.32-3.2-2.93-2.13-5.19-5.13-6.77-8.99-1.59-3.86-2.38-8.46-2.38-13.79v-39.9h10.9v36.45c0,3.78.51,7.04,1.54,9.79,1.02,2.75,2.5,4.86,4.45,6.34,1.94,1.48,4.29,2.22,7.04,2.22,2.05,0,3.92-.39,5.61-1.17,1.69-.78,3.16-1.87,4.39-3.26,1.23-1.39,2.2-3.08,2.91-5.05.7-1.97,1.06-4.1,1.06-6.4v-38.92h10.9v64.66h-10.9v-13.55l1.91-1.48c-.85,3.04-2.28,5.79-4.29,8.25-2.01,2.46-4.39,4.41-7.14,5.85-2.75,1.44-5.72,2.16-8.89,2.16Z"/>
    <path class="cls-1" d="M447.7,105.93c-2.4,0-4.78-.45-7.15-1.35-2.36-.9-4.52-2.11-6.46-3.63-1.94-1.52-3.56-3.2-4.87-5.05-1.31-1.85-2.17-3.71-2.59-5.6l2.75-1.72v15.76h-10.9V13.57h10.9v41.26l-1.69-1.11c.35-1.89,1.13-3.71,2.33-5.48,1.2-1.76,2.73-3.37,4.6-4.8,1.87-1.44,3.9-2.59,6.09-3.45,2.19-.86,4.41-1.29,6.67-1.29,5.01,0,9.46,1.44,13.34,4.31,3.88,2.88,6.95,6.83,9.21,11.88,2.26,5.05,3.39,10.82,3.39,17.3s-1.11,12.27-3.33,17.37c-2.22,5.09-5.28,9.09-9.16,12.01-3.88,2.92-8.26,4.37-13.12,4.37ZM445.9,94.36c3.24,0,6.14-.96,8.68-2.89,2.54-1.93,4.55-4.56,6.03-7.88s2.22-7.12,2.22-11.39-.72-7.94-2.17-11.27c-1.45-3.33-3.44-5.93-5.98-7.82-2.54-1.89-5.47-2.83-8.79-2.83s-6.25.94-8.79,2.83c-2.54,1.89-4.55,4.5-6.03,7.82s-2.22,7.08-2.22,11.27.74,8.07,2.22,11.39,3.49,5.95,6.03,7.88c2.54,1.93,5.47,2.89,8.79,2.89Z"/>
    <path class="cls-1" d="M517.56,104.7V18.49h46.68v12.81h-35.25v60.59h35.25v12.81h-46.68ZM522.74,66.89v-12.81h35.67v12.81h-35.67Z"/>
    <path class="cls-1" d="M602.87,105.93c-5.15,0-9.76-1.48-13.81-4.43-4.06-2.96-7.27-6.98-9.63-12.07-2.36-5.09-3.55-10.8-3.55-17.12s1.18-12.03,3.55-17.12c2.36-5.09,5.57-9.11,9.63-12.07,4.06-2.96,8.66-4.43,13.81-4.43s9.44,1.17,13.5,3.51c4.06,2.34,7.14,5.52,9.26,9.54l-6.03,8.62c-1.13-1.89-2.58-3.61-4.34-5.17-1.76-1.56-3.64-2.79-5.61-3.69-1.98-.9-3.88-1.35-5.72-1.35-3.39,0-6.4.97-9.05,2.89-2.65,1.93-4.75,4.58-6.3,7.94-1.55,3.37-2.33,7.14-2.33,11.33s.81,7.94,2.43,11.27c1.62,3.33,3.77,5.97,6.46,7.94,2.68,1.97,5.64,2.96,8.89,2.96,1.91,0,3.76-.37,5.56-1.11s3.55-1.85,5.24-3.33c1.69-1.48,3.28-3.28,4.76-5.42l6.03,8.62c-2.26,3.7-5.49,6.73-9.69,9.11-4.2,2.38-8.56,3.57-13.07,3.57Z"/>
    <path class="cls-1" d="M660.88,105.93c-5.43,0-10.29-1.46-14.55-4.37-4.27-2.91-7.64-6.9-10.11-11.95-2.47-5.05-3.7-10.82-3.7-17.3s1.23-12.25,3.7-17.3c2.47-5.05,5.84-9.03,10.11-11.95,4.27-2.91,9.12-4.37,14.55-4.37s10.18,1.46,14.45,4.37c4.27,2.92,7.64,6.9,10.11,11.95,2.47,5.05,3.71,10.82,3.71,17.3s-1.24,12.25-3.71,17.3c-2.47,5.05-5.84,9.03-10.11,11.95-4.27,2.92-9.09,4.37-14.45,4.37ZM660.88,94.36c3.32,0,6.28-.96,8.89-2.89,2.61-1.93,4.66-4.56,6.14-7.88s2.19-7.08,2.12-11.27c.07-4.27-.64-8.07-2.12-11.39s-3.53-5.93-6.14-7.82c-2.61-1.89-5.58-2.83-8.89-2.83s-6.3.97-8.94,2.89c-2.65,1.93-4.71,4.56-6.19,7.88-1.48,3.32-2.19,7.08-2.12,11.27-.07,4.19.64,7.94,2.12,11.27,1.48,3.33,3.55,5.95,6.19,7.88,2.65,1.93,5.63,2.89,8.94,2.89Z"/>
  </g>
</svg>