<?xml version="1.0" encoding="UTF-8"?>
<svg xmlns="http://www.w3.org/2000/svg" version="1.1" xmlns:xlink="http://www.w3.org/1999/xlink" viewBox="0 0 1000 1000">
  <!-- Generator: Adobe Illustrator 29.0.0, SVG Export Plug-In . SVG Version: 2.1.0 Build 186)  -->
  <defs>
    <style>
      .st0 {
        fill: url(#Dégradé_sans_nom_443);
      }

      .st1 {
        fill: url(#Dégradé_sans_nom_4411);
      }

      .st2 {
        fill: url(#Dégradé_sans_nom_511);
      }

      .st2, .st3, .st4, .st5, .st6, .st7, .st8, .st9, .st10, .st11, .st12, .st13, .st14, .st15, .st16, .st17, .st18, .st19 {
        stroke-miterlimit: 10;
      }

      .st2, .st5, .st6 {
        stroke: #fff;
      }

      .st20 {
        fill: url(#Dégradé_sans_nom_515);
      }

      .st21 {
        fill: url(#Dégradé_sans_nom_448);
      }

      .st3 {
        fill: url(#Dégradé_sans_nom_4419);
      }

      .st3, .st12, .st18 {
        stroke: #312783;
      }

      .st22 {
        fill: url(#Dégradé_sans_nom_4429);
      }

      .st23 {
        fill: url(#Dégradé_sans_nom_4412);
      }

      .st4 {
        fill: url(#Dégradé_sans_nom_124);
      }

      .st4, .st8, .st9, .st10, .st11, .st14, .st16, .st17, .st19 {
        stroke: #1d1d1b;
      }

      .st24 {
        fill: url(#Dégradé_sans_nom_516);
      }

      .st25 {
        fill: url(#Dégradé_sans_nom_4420);
      }

      .st26 {
        fill: url(#Dégradé_sans_nom_4423);
      }

      .st5 {
        fill: url(#Dégradé_sans_nom_51);
      }

      .st27 {
        fill: url(#Dégradé_sans_nom_512);
      }

      .st28 {
        fill: url(#Dégradé_sans_nom_4430);
      }

      .st29 {
        fill: url(#Dégradé_sans_nom_4428);
      }

      .st30 {
        fill: url(#Dégradé_sans_nom_444);
      }

      .st6, .st8 {
        stroke-width: 5px;
      }

      .st6, .st8, .st9 {
        fill: none;
      }

      .st7 {
        fill: url(#Dégradé_sans_nom_4421);
        stroke: url(#Dégradé_sans_nom_581);
      }

      .st7, .st15 {
        stroke-width: 1.5px;
      }

      .st31 {
        fill: url(#Dégradé_sans_nom_4417);
      }

      .st32 {
        fill: url(#Dégradé_sans_nom_4415);
      }

      .st33 {
        fill: #f40007;
      }

      .st34 {
        fill: url(#Dégradé_sans_nom_4414);
      }

      .st35 {
        fill: url(#Dégradé_sans_nom_4416);
      }

      .st10 {
        fill: #050000;
      }

      .st36 {
        fill: url(#Dégradé_sans_nom_4410);
      }

      .st37 {
        fill: url(#Dégradé_sans_nom_4424);
      }

      .st38 {
        fill: url(#Dégradé_sans_nom_449);
      }

      .st39 {
        fill: #00d10e;
      }

      .st11 {
        fill: url(#Dégradé_sans_nom_123);
      }

      .st12 {
        fill: url(#Dégradé_sans_nom_4426);
      }

      .st13 {
        stroke: url(#Dégradé_sans_nom_58);
      }

      .st40 {
        fill: #ebff05;
      }

      .st41 {
        fill: url(#Dégradé_sans_nom_517);
      }

      .st42 {
        fill: url(#Dégradé_sans_nom_4413);
      }

      .st43 {
        fill: url(#Dégradé_sans_nom_514);
      }

      .st44 {
        fill: url(#Dégradé_sans_nom_44);
      }

      .st45 {
        fill: url(#Dégradé_sans_nom_518);
      }

      .st46 {
        fill: url(#Dégradé_sans_nom_447);
      }

      .st14 {
        fill: url(#Dégradé_sans_nom_121);
      }

      .st47 {
        fill: url(#Dégradé_sans_nom_441);
      }

      .st48 {
        fill: url(#Dégradé_sans_nom_4425);
      }

      .st49 {
        fill: url(#Dégradé_sans_nom_446);
      }

      .st50 {
        fill: url(#Dégradé_sans_nom_445);
      }

      .st15 {
        fill: url(#Dégradé_sans_nom_4422);
        stroke: url(#Dégradé_sans_nom_582);
      }

      .st16 {
        fill: url(#Dégradé_sans_nom_12);
      }

      .st51 {
        fill: url(#Dégradé_sans_nom_4427);
      }

      .st17 {
        fill: url(#Dégradé_sans_nom_14);
      }

      .st52 {
        fill: url(#Dégradé_sans_nom_519);
      }

      .st19 {
        fill: url(#Dégradé_sans_nom_122);
      }

      .st53 {
        fill: url(#Dégradé_sans_nom_4418);
      }

      .st54 {
        fill: url(#Dégradé_sans_nom_442);
      }

      .st55 {
        fill: url(#Dégradé_sans_nom_513);
      }
    </style>
    <linearGradient id="Dégradé_sans_nom_44" data-name="Dégradé sans nom 44" x1="1345.77" y1="15.91" x2="1345.77" y2="-232.65" gradientUnits="userSpaceOnUse">
      <stop offset="0" stop-color="#312783"/>
      <stop offset="1" stop-color="#e6007e"/>
    </linearGradient>
    <linearGradient id="Dégradé_sans_nom_441" data-name="Dégradé sans nom 44" x1="316.62" y1="-237.34" x2="534.49" y2="-237.34" xlink:href="#Dégradé_sans_nom_44"/>
    <linearGradient id="Dégradé_sans_nom_442" data-name="Dégradé sans nom 44" x1="316.62" y1="-237.34" x2="534.49" y2="-237.34" xlink:href="#Dégradé_sans_nom_44"/>
    <linearGradient id="Dégradé_sans_nom_443" data-name="Dégradé sans nom 44" x1="316.62" y1="-237.34" x2="534.49" y2="-237.34" xlink:href="#Dégradé_sans_nom_44"/>
    <linearGradient id="Dégradé_sans_nom_444" data-name="Dégradé sans nom 44" x1="316.62" y1="-237.34" x2="534.49" y2="-237.34" xlink:href="#Dégradé_sans_nom_44"/>
    <linearGradient id="Dégradé_sans_nom_445" data-name="Dégradé sans nom 44" x1="316.62" y1="-237.34" x2="534.49" y2="-237.34" xlink:href="#Dégradé_sans_nom_44"/>
    <linearGradient id="Dégradé_sans_nom_446" data-name="Dégradé sans nom 44" x1="316.62" y1="-237.34" x2="534.49" y2="-237.34" xlink:href="#Dégradé_sans_nom_44"/>
    <linearGradient id="Dégradé_sans_nom_447" data-name="Dégradé sans nom 44" x1="316.62" y1="-237.34" x2="534.49" y2="-237.34" xlink:href="#Dégradé_sans_nom_44"/>
    <linearGradient id="Dégradé_sans_nom_448" data-name="Dégradé sans nom 44" x1="316.62" y1="-237.34" x2="534.49" y2="-237.34" xlink:href="#Dégradé_sans_nom_44"/>
    <linearGradient id="Dégradé_sans_nom_449" data-name="Dégradé sans nom 44" x1="316.62" y1="-237.34" x2="534.49" y2="-237.34" xlink:href="#Dégradé_sans_nom_44"/>
    <linearGradient id="Dégradé_sans_nom_4410" data-name="Dégradé sans nom 44" x1="316.62" y1="-237.34" x2="534.49" y2="-237.34" xlink:href="#Dégradé_sans_nom_44"/>
    <linearGradient id="Dégradé_sans_nom_4411" data-name="Dégradé sans nom 44" x1="316.62" y1="-237.34" x2="534.49" y2="-237.34" xlink:href="#Dégradé_sans_nom_44"/>
    <linearGradient id="Dégradé_sans_nom_4412" data-name="Dégradé sans nom 44" x1="316.62" y1="-237.34" x2="534.49" y2="-237.34" xlink:href="#Dégradé_sans_nom_44"/>
    <linearGradient id="Dégradé_sans_nom_4413" data-name="Dégradé sans nom 44" x1="316.62" y1="-237.34" x2="534.49" y2="-237.34" xlink:href="#Dégradé_sans_nom_44"/>
    <linearGradient id="Dégradé_sans_nom_12" data-name="Dégradé sans nom 12" x1="-828.45" y1="46.67" x2="-400.43" y2="46.67" gradientUnits="userSpaceOnUse">
      <stop offset="0" stop-color="#0e00bf"/>
      <stop offset=".14" stop-color="#3506c4"/>
      <stop offset=".45" stop-color="#8a15d1"/>
      <stop offset=".71" stop-color="#c920da"/>
      <stop offset=".9" stop-color="#f027df"/>
      <stop offset="1" stop-color="#ff2ae2"/>
    </linearGradient>
    <linearGradient id="Dégradé_sans_nom_121" data-name="Dégradé sans nom 12" x1="-734.23" y1="384.51" x2="-311.59" y2="384.51" xlink:href="#Dégradé_sans_nom_12"/>
    <linearGradient id="Dégradé_sans_nom_122" data-name="Dégradé sans nom 12" x1="-839.22" y1="354.9" x2="-677.7" y2="354.9" xlink:href="#Dégradé_sans_nom_12"/>
    <linearGradient id="Dégradé_sans_nom_14" data-name="Dégradé sans nom 14" x1="-447.89" y1="1184.93" x2="-346.97" y2="1184.93" gradientUnits="userSpaceOnUse">
      <stop offset="0" stop-color="#0e00bf"/>
      <stop offset=".14" stop-color="#3506c4"/>
      <stop offset=".45" stop-color="#8a15d1"/>
      <stop offset=".71" stop-color="#c920da"/>
      <stop offset=".9" stop-color="#f027df"/>
      <stop offset="1" stop-color="#ff2ae2"/>
    </linearGradient>
    <linearGradient id="Dégradé_sans_nom_123" data-name="Dégradé sans nom 12" x1="-431.39" y1="1264.6" x2="-331.74" y2="1264.6" xlink:href="#Dégradé_sans_nom_12"/>
    <linearGradient id="Dégradé_sans_nom_124" data-name="Dégradé sans nom 12" x1="-450.43" y1="1257.61" x2="-412.35" y2="1257.61" xlink:href="#Dégradé_sans_nom_12"/>
    <linearGradient id="Dégradé_sans_nom_4414" data-name="Dégradé sans nom 44" x1="1357.57" y1="190.28" x2="1357.57" y2="149.73" xlink:href="#Dégradé_sans_nom_44"/>
    <linearGradient id="Dégradé_sans_nom_4415" data-name="Dégradé sans nom 44" x1="1307.9" y1="280.82" x2="1307.9" y2="88.04" xlink:href="#Dégradé_sans_nom_44"/>
    <linearGradient id="Dégradé_sans_nom_51" data-name="Dégradé sans nom 51" x1="1386.8" y1="-111.72" x2="1386.8" y2="-152.28" gradientUnits="userSpaceOnUse">
      <stop offset="0" stop-color="#1d1d1b"/>
      <stop offset="1" stop-color="#1d1d1b"/>
    </linearGradient>
    <linearGradient id="Dégradé_sans_nom_511" data-name="Dégradé sans nom 51" x1="1337.13" y1="-21.18" x2="1337.13" y2="-213.96" xlink:href="#Dégradé_sans_nom_51"/>
    <linearGradient id="Dégradé_sans_nom_4416" data-name="Dégradé sans nom 44" x1="229.6" y1="-239.36" x2="229.6" y2="-279.91" xlink:href="#Dégradé_sans_nom_44"/>
    <linearGradient id="Dégradé_sans_nom_4417" data-name="Dégradé sans nom 44" x1="179.93" y1="-244.62" x2="179.93" y2="-341.6" xlink:href="#Dégradé_sans_nom_44"/>
    <linearGradient id="Dégradé_sans_nom_4418" data-name="Dégradé sans nom 44" x1="192.39" y1="-141.2" x2="192.39" y2="-237.59" xlink:href="#Dégradé_sans_nom_44"/>
    <linearGradient id="Dégradé_sans_nom_4419" data-name="Dégradé sans nom 44" x1="267.81" y1="-300.48" x2="267.81" y2="-300.48" xlink:href="#Dégradé_sans_nom_44"/>
    <linearGradient id="Dégradé_sans_nom_4420" data-name="Dégradé sans nom 44" x1="995.58" y1="-16.92" x2="995.58" y2="-265.49" xlink:href="#Dégradé_sans_nom_44"/>
    <linearGradient id="Dégradé_sans_nom_512" data-name="Dégradé sans nom 51" x1="1045.25" y1="-135.35" x2="1045.25" y2="-175.91" xlink:href="#Dégradé_sans_nom_51"/>
    <linearGradient id="Dégradé_sans_nom_513" data-name="Dégradé sans nom 51" x1="995.58" y1="-44.81" x2="995.58" y2="-237.59" xlink:href="#Dégradé_sans_nom_51"/>
    <linearGradient id="Dégradé_sans_nom_58" data-name="Dégradé sans nom 58" x1="1653.99" y1="336.28" x2="1653.99" y2="32.59" gradientUnits="userSpaceOnUse">
      <stop offset="0" stop-color="#312783"/>
      <stop offset="1" stop-color="#e6007e"/>
    </linearGradient>
    <linearGradient id="Dégradé_sans_nom_4421" data-name="Dégradé sans nom 44" x1="1703.66" y1="196.14" x2="1703.66" y2="155.58" xlink:href="#Dégradé_sans_nom_44"/>
    <linearGradient id="Dégradé_sans_nom_581" data-name="Dégradé sans nom 58" x1="1682.93" y1="175.59" x2="1724.9" y2="175.59" xlink:href="#Dégradé_sans_nom_58"/>
    <linearGradient id="Dégradé_sans_nom_4422" data-name="Dégradé sans nom 44" x1="1653.99" y1="286.67" x2="1653.99" y2="93.89" xlink:href="#Dégradé_sans_nom_44"/>
    <linearGradient id="Dégradé_sans_nom_582" data-name="Dégradé sans nom 58" x1="1599.52" y1="190.28" x2="1708.45" y2="190.28" xlink:href="#Dégradé_sans_nom_58"/>
    <linearGradient id="Dégradé_sans_nom_514" data-name="Dégradé sans nom 51" x1="549.67" y1="175.86" x2="549.67" y2="135.3" xlink:href="#Dégradé_sans_nom_51"/>
    <linearGradient id="Dégradé_sans_nom_515" data-name="Dégradé sans nom 51" x1="500" y1="266.4" x2="500" y2="73.62" xlink:href="#Dégradé_sans_nom_51"/>
    <linearGradient id="Dégradé_sans_nom_516" data-name="Dégradé sans nom 51" x1="242.06" y1="175.86" x2="242.06" y2="135.3" xlink:href="#Dégradé_sans_nom_51"/>
    <linearGradient id="Dégradé_sans_nom_517" data-name="Dégradé sans nom 51" x1="192.39" y1="266.4" x2="192.39" y2="73.62" xlink:href="#Dégradé_sans_nom_51"/>
    <linearGradient id="Dégradé_sans_nom_518" data-name="Dégradé sans nom 51" x1="871.05" y1="175.86" x2="871.05" y2="135.3" xlink:href="#Dégradé_sans_nom_51"/>
    <linearGradient id="Dégradé_sans_nom_519" data-name="Dégradé sans nom 51" x1="821.38" y1="266.4" x2="821.38" y2="73.62" xlink:href="#Dégradé_sans_nom_51"/>
    <linearGradient id="Dégradé_sans_nom_4423" data-name="Dégradé sans nom 44" x1="1359.09" y1="635.53" x2="1359.09" y2="594.97" xlink:href="#Dégradé_sans_nom_44"/>
    <linearGradient id="Dégradé_sans_nom_4424" data-name="Dégradé sans nom 44" x1="1309.42" y1="630.26" x2="1309.42" y2="533.28" xlink:href="#Dégradé_sans_nom_44"/>
    <linearGradient id="Dégradé_sans_nom_4425" data-name="Dégradé sans nom 44" x1="1321.88" y1="733.68" x2="1321.88" y2="637.29" xlink:href="#Dégradé_sans_nom_44"/>
    <linearGradient id="Dégradé_sans_nom_4426" data-name="Dégradé sans nom 44" x1="1397.3" y1="574.4" x2="1397.3" y2="574.4" xlink:href="#Dégradé_sans_nom_44"/>
    <linearGradient id="Dégradé_sans_nom_4427" data-name="Dégradé sans nom 44" x1="399.95" y1="644.68" x2="399.95" y2="604.13" xlink:href="#Dégradé_sans_nom_44"/>
    <linearGradient id="Dégradé_sans_nom_4428" data-name="Dégradé sans nom 44" x1="322.34" y1="735.22" x2="322.34" y2="542.44" xlink:href="#Dégradé_sans_nom_44"/>
    <linearGradient id="Dégradé_sans_nom_4429" data-name="Dégradé sans nom 44" x1="819.72" y1="649.73" x2="819.72" y2="574.19" xlink:href="#Dégradé_sans_nom_44"/>
    <linearGradient id="Dégradé_sans_nom_4430" data-name="Dégradé sans nom 44" x1="770.05" y1="818.37" x2="770.05" y2="459.29" xlink:href="#Dégradé_sans_nom_44"/>
  </defs>
  <g id="Calque_2">
    <rect class="st10" x="-1075.4" y="-266.32" width="1000" height="1000"/>
  </g>
  <g id="Calque_3">
    <rect class="st44" x="1215.82" y="-232.65" width="259.9" height="248.57"/>
    <rect x="1159.18" y="33.09" width="297.44" height="302.69"/>
    <rect class="st18" x="29.31" y="-398.61" width="600.64" height="307.98" rx="75.81" ry="75.81"/>
    <g>
      <path class="st47" d="M332.5-250.44c-4.63,0-8.32-1.34-11.07-4.02-2.76-2.68-4.14-6.6-4.14-11.74v-8.88c0-5.14,1.38-9.06,4.14-11.74,2.76-2.68,6.45-4.02,11.07-4.02s8.37,1.34,11.13,4.02c2.76,2.68,4.14,6.6,4.14,11.74v8.88c0,5.14-1.38,9.06-4.14,11.74-2.76,2.68-6.47,4.02-11.13,4.02ZM332.5-254.6c3.37,0,5.98-1.01,7.83-3.03,1.85-2.02,2.78-4.82,2.78-8.41v-9.21c0-3.59-.93-6.39-2.78-8.41-1.85-2.02-4.46-3.03-7.83-3.03s-5.92,1.01-7.77,3.03c-1.85,2.02-2.78,4.82-2.78,8.41v9.21c0,3.59.92,6.39,2.78,8.41,1.85,2.02,4.44,3.03,7.77,3.03ZM334.77-242.22c-1.37,0-2.47-.42-3.3-1.25-.83-.83-1.25-1.97-1.25-3.41v-4.33h4.55v3.5c0,1.11.52,1.67,1.55,1.67h3.66v3.83h-5.22Z"/>
      <path class="st54" d="M366.08-250.71c-1.96,0-3.77-.43-5.41-1.28-1.65-.85-2.94-2.12-3.89-3.8s-1.42-3.73-1.42-6.13v-16.43h4.38v16.1c0,2.7.67,4.66,2.03,5.88,1.35,1.22,3.17,1.83,5.47,1.83,2.59,0,4.72-.85,6.38-2.55s2.5-4.24,2.5-7.6v-13.66h4.38v27.14h-4.27v-4.61h-.78c-.59,1.3-1.61,2.47-3.05,3.53-1.44,1.05-3.55,1.58-6.33,1.58Z"/>
      <path class="st0" d="M402.1-250.44c-2.74,0-5.14-.58-7.22-1.75-2.07-1.17-3.68-2.8-4.83-4.91-1.15-2.11-1.72-4.55-1.72-7.33v-.67c0-2.81.57-5.27,1.72-7.38,1.15-2.11,2.74-3.75,4.77-4.91,2.03-1.17,4.37-1.75,6.99-1.75s4.81.55,6.77,1.64c1.96,1.09,3.5,2.66,4.61,4.69s1.67,4.42,1.67,7.16v2h-22.15c.11,2.92,1.05,5.21,2.83,6.86s4,2.47,6.66,2.47c2.33,0,4.12-.54,5.38-1.61,1.26-1.07,2.22-2.35,2.89-3.83l3.77,1.83c-.56,1.15-1.32,2.29-2.3,3.44-.98,1.15-2.26,2.11-3.83,2.89-1.57.78-3.58,1.17-6.02,1.17ZM392.78-267.26h17.65c-.15-2.52-1.01-4.48-2.58-5.88-1.57-1.41-3.58-2.11-6.02-2.11s-4.52.7-6.11,2.11-2.57,3.37-2.94,5.88Z"/>
      <path class="st30" d="M422.53-251.21v-27.14h4.27v4.61h.78c.59-1.29,1.6-2.47,3.03-3.53,1.42-1.05,3.52-1.58,6.3-1.58,2.04,0,3.86.43,5.47,1.28s2.9,2.11,3.86,3.77,1.44,3.72,1.44,6.16v16.43h-4.38v-16.1c0-2.7-.68-4.66-2.03-5.88-1.35-1.22-3.17-1.83-5.47-1.83-2.63,0-4.77.85-6.41,2.55s-2.47,4.24-2.47,7.6v13.66h-4.38Z"/>
      <path class="st50" d="M466.55-251.21c-1.55,0-2.75-.42-3.58-1.28-.83-.85-1.25-2.02-1.25-3.5v-18.54h-8.16v-3.83h8.16v-9.66h4.38v9.66h8.88v3.83h-8.88v17.87c0,1.11.54,1.67,1.61,1.67h6.05v3.77h-7.22Z"/>
      <path class="st49" d="M484.31-282.58c-.96,0-1.77-.31-2.41-.94-.65-.63-.97-1.42-.97-2.39s.32-1.81.97-2.44c.65-.63,1.45-.94,2.41-.94s1.76.32,2.39.94c.63.63.94,1.44.94,2.44s-.32,1.76-.94,2.39c-.63.63-1.42.94-2.39.94ZM482.09-251.21v-27.14h4.38v27.14h-4.38Z"/>
      <path class="st46" d="M495.69-251.21v-27.14h4.27v4.61h.78c.59-1.29,1.6-2.47,3.03-3.53,1.42-1.05,3.52-1.58,6.3-1.58,2.04,0,3.86.43,5.47,1.28s2.9,2.11,3.86,3.77,1.44,3.72,1.44,6.16v16.43h-4.38v-16.1c0-2.7-.68-4.66-2.03-5.88-1.35-1.22-3.17-1.83-5.47-1.83-2.63,0-4.77.85-6.41,2.55s-2.47,4.24-2.47,7.6v13.66h-4.38Z"/>
      <path class="st21" d="M331.33-183.83c-2.81,0-5.33-.5-7.55-1.5-2.22-1-3.97-2.51-5.25-4.52-1.28-2.02-1.92-4.54-1.92-7.58v-1.17h4.61v1.17c0,3.22.94,5.62,2.83,7.19,1.89,1.57,4.31,2.36,7.27,2.36s5.35-.68,6.94-2.05c1.59-1.37,2.39-3.09,2.39-5.16,0-1.44-.36-2.59-1.08-3.44-.72-.85-1.73-1.54-3.03-2.08-1.3-.54-2.81-1.01-4.55-1.42l-2.89-.72c-2.26-.59-4.26-1.31-5.99-2.16-1.74-.85-3.1-1.97-4.08-3.36-.98-1.39-1.47-3.17-1.47-5.36s.54-4.07,1.64-5.66c1.09-1.59,2.63-2.81,4.61-3.66s4.26-1.28,6.86-1.28,4.99.45,7.08,1.36c2.09.91,3.74,2.24,4.94,4,1.2,1.76,1.8,3.97,1.8,6.63v2.33h-4.61v-2.33c0-1.89-.4-3.4-1.19-4.55-.8-1.15-1.89-2-3.27-2.55-1.39-.55-2.97-.83-4.75-.83-2.55,0-4.61.56-6.16,1.69-1.55,1.13-2.33,2.73-2.33,4.8,0,1.37.33,2.48,1,3.33.67.85,1.61,1.55,2.83,2.08,1.22.54,2.68,1.01,4.39,1.42l2.89.72c2.26.48,4.28,1.14,6.08,1.97,1.79.83,3.23,1.96,4.3,3.39,1.07,1.42,1.61,3.28,1.61,5.58s-.57,4.29-1.72,5.99c-1.15,1.7-2.77,3.03-4.86,3.97-2.09.94-4.54,1.42-7.35,1.42Z"/>
      <path class="st38" d="M349.37-184.6l11.99-38.86h8.22l11.99,38.86h-4.83l-3-9.83h-16.54l-3,9.83h-4.83ZM358.36-198.65h14.15l-6.66-21.98h-.78l-6.72,21.98Z"/>
      <path class="st36" d="M387.39-184.6v-38.86h8.88l10.32,35.91h.72l10.32-35.91h8.88v38.86h-4.5v-35.8h-.78l-10.27,35.8h-8.05l-10.27-35.8h-.78v35.8h-4.5Z"/>
      <path class="st1" d="M448.34-183.83c-2.81,0-5.33-.5-7.55-1.5-2.22-1-3.97-2.51-5.25-4.52-1.28-2.02-1.92-4.54-1.92-7.58v-1.17h4.61v1.17c0,3.22.94,5.62,2.83,7.19,1.89,1.57,4.31,2.36,7.27,2.36s5.35-.68,6.94-2.05c1.59-1.37,2.39-3.09,2.39-5.16,0-1.44-.36-2.59-1.08-3.44-.72-.85-1.73-1.54-3.03-2.08-1.3-.54-2.81-1.01-4.55-1.42l-2.89-.72c-2.26-.59-4.26-1.31-5.99-2.16-1.74-.85-3.1-1.97-4.08-3.36-.98-1.39-1.47-3.17-1.47-5.36s.54-4.07,1.64-5.66c1.09-1.59,2.63-2.81,4.61-3.66s4.26-1.28,6.86-1.28,4.99.45,7.08,1.36c2.09.91,3.74,2.24,4.94,4,1.2,1.76,1.8,3.97,1.8,6.63v2.33h-4.61v-2.33c0-1.89-.4-3.4-1.19-4.55-.8-1.15-1.89-2-3.27-2.55-1.39-.55-2.97-.83-4.75-.83-2.55,0-4.61.56-6.16,1.69-1.55,1.13-2.33,2.73-2.33,4.8,0,1.37.33,2.48,1,3.33.67.85,1.61,1.55,2.83,2.08,1.22.54,2.68,1.01,4.39,1.42l2.89.72c2.26.48,4.28,1.14,6.08,1.97,1.79.83,3.23,1.96,4.3,3.39,1.07,1.42,1.61,3.28,1.61,5.58s-.57,4.29-1.72,5.99c-1.15,1.7-2.77,3.03-4.86,3.97-2.09.94-4.54,1.42-7.35,1.42Z"/>
      <path class="st23" d="M483.53-183.83c-4.63,0-8.32-1.34-11.07-4.02-2.76-2.68-4.14-6.6-4.14-11.74v-8.88c0-5.14,1.38-9.06,4.14-11.74,2.76-2.68,6.45-4.02,11.07-4.02s8.37,1.34,11.13,4.02c2.76,2.68,4.14,6.6,4.14,11.74v8.88c0,5.14-1.38,9.06-4.14,11.74-2.76,2.68-6.47,4.02-11.13,4.02ZM483.53-187.99c3.37,0,5.98-1.01,7.83-3.03,1.85-2.02,2.78-4.82,2.78-8.41v-9.21c0-3.59-.93-6.39-2.78-8.41-1.85-2.02-4.46-3.03-7.83-3.03s-5.92,1.01-7.77,3.03c-1.85,2.02-2.78,4.82-2.78,8.41v9.21c0,3.59.92,6.39,2.78,8.41,1.85,2.02,4.44,3.03,7.77,3.03Z"/>
      <path class="st42" d="M506.57-184.6v-38.86h9.05l13.54,35.91h.72v-35.91h4.61v38.86h-9.05l-13.49-35.97h-.78v35.97h-4.61Z"/>
    </g>
    <rect x="1160.7" y="480.58" width="297.44" height="302.69"/>
  </g>
  <g id="Calque_1">
    <polygon class="st16" points="-500.03 249.91 -718.08 249.91 -828.45 128.77 -828.45 -30.05 -699.24 -156.58 -518.87 -156.58 -400.43 -30.05 -465.07 -3.89 -547.74 -87.26 -673.62 -87.26 -763.81 -3.89 -763.81 100.77 -686.77 180.59 -534.59 180.59 -500.03 249.91"/>
    <polyline class="st14" points="-500.37 250.36 -426.39 249.91 -377.41 332.19 -377.41 441.31 -426.39 521.8 -539.2 521.8 -653.47 521.8 -734.23 589.1 -605.02 589.1 -400.43 589.1 -311.59 467.96 -311.59 303.75 -400.43 179.92 -534.59 180.59"/>
    <polygon class="st19" points="-677.7 360.28 -677.7 435.66 -839.22 360.28 -839.22 274.14 -677.7 360.28"/>
    <polygon class="st17" points="-370.46 1232.86 -421.87 1232.86 -447.89 1204.29 -447.89 1166.84 -417.43 1137.01 -374.9 1137.01 -346.97 1166.84 -362.21 1173.01 -381.71 1153.36 -411.39 1153.36 -432.65 1173.01 -432.65 1197.69 -414.49 1216.51 -378.6 1216.51 -370.46 1232.86"/>
    <polyline class="st11" points="-376.25 1232.96 -358.8 1232.86 -347.26 1252.26 -347.26 1277.99 -358.8 1296.97 -385.4 1296.97 -412.35 1296.97 -431.39 1312.84 -400.92 1312.84 -352.68 1312.84 -331.74 1284.27 -331.74 1245.55 -352.68 1216.35 -384.32 1216.51"/>
    <polygon class="st4" points="-412.35 1258.88 -412.35 1276.66 -450.43 1258.88 -450.43 1238.57 -412.35 1258.88"/>
    <polyline class="st9" points="-601.81 1064.74 -673.04 1064.74 -709.04 1100.74 -709.04 1154.36 -676.11 1191.12 -603.34 1191.12 -566.57 1226.36 -566.57 1281.51 -602.57 1315.97 -674.57 1315.97"/>
    <path class="st9" d="M-655.66,1216.44h28.36c8.08,0,15.85,3.24,21.69,9.06l1.94,1.93c6.17,6.14,9.66,14.64,9.66,23.52v2.8c0,9.84-4.28,19.15-11.64,25.33h0c-5.58,4.69-12.53,7.24-19.71,7.24h-29"/>
    <path class="st9" d="M-617.25,1163.58l-29.82.32c-8.5.09-16.71-3.24-22.91-9.28l-2.06-2.01c-6.56-6.39-10.32-15.29-10.42-24.63l-.03-2.94c-.11-10.34,4.28-20.18,11.96-26.77h0c5.81-4.99,13.1-7.76,20.64-7.84l30.5-.32"/>
    <polyline class="st34" points="1337.36 163.25 1351.79 149.73 1377.78 176.77 1365.08 190.28"/>
    <polyline class="st9" points="-182.61 774.38 -254.61 774.38 -290.61 808.85 -290.61 864 -253.84 899.23 -181.07 899.23"/>
    <polyline class="st9" points="-204.83 802.34 -244.58 802.34 -264.46 821.37 -264.46 851.82 -244.16 871.27 -203.98 871.27"/>
    <polyline class="st9" points="-144.56 989.61 -144.56 934.46 -181.32 899.23"/>
    <polyline class="st9" points="-204.83 930.25 -244.58 930.25 -264.46 949.28 -264.46 979.73 -244.16 999.19 -203.98 999.19"/>
    <path class="st9" d="M-253.84,899.23"/>
    <path class="st9" d="M-253.84,899.23l-36.77,34.51s1.43,64.26,0,62.39"/>
    <rect class="st9" x="-187.14" y="1006.92" width="59.74" height="26.04" transform="translate(675.15 409.94) rotate(45)"/>
    <path class="st9" d="M1450.79,17.95"/>
    <path class="st32" d="M1334.92,184.49l-11.52-20.6-22.48.24c-6.41.07-12.6-2.48-17.27-7.12l-1.55-1.54c-4.94-4.91-7.78-11.73-7.85-18.9l-.02-2.26c-.08-7.94,3.23-15.49,9.02-20.54h0c4.38-3.83,9.88-5.95,15.57-6.01l8.32-.09c9.53-.1,18.84,2.9,26.57,8.57h0c4.54,3.33,7.23,8.68,7.23,14.38v5.2h20.69v-21.92l-26.57-25.86h-53.71l-27.14,27.62v41.14l24.83,28.21,61.8-.59,20.79,27.62v42.32l-27.14,26.45h-54.29l-20.79-21.65v-20.08h19.64l8.06,9.33c5.3,6.13,12.93,9.65,20.96,9.65h9.24c5.41,0,10.65-1.96,14.86-5.56h0c5.55-4.75,8.78-11.89,8.78-19.44v-2.15c0-6.81-2.63-13.33-7.28-18.05l-1.46-1.48c-4.4-4.46-10.26-6.95-16.35-6.95h-21.38l-15.42-19.43"/>
    <polygon class="st5" points="1366.58 -138.76 1381.02 -152.28 1407.01 -125.24 1394.31 -111.72 1366.58 -138.76"/>
    <path class="st9" d="M1255.71-108.19"/>
    <path class="st2" d="M1363.12-116.99l-10.49-21.13-22.48.24c-6.41.07-12.6-2.48-17.27-7.12l-1.55-1.54c-4.94-4.91-7.78-11.73-7.85-18.9l-.02-2.26c-.08-7.94,3.23-15.49,9.02-20.54h0c4.38-3.83,9.88-5.95,15.57-6.01l8.32-.09c9.53-.1,18.84,2.9,26.57,8.57h0c4.54,3.33,7.23,8.68,7.23,14.38v5.2h20.69v-21.92l-26.57-25.86h-53.71l-27.14,27.62v41.14l24.83,28.21,61.8-.59,20.79,27.62v42.32l-27.14,26.45h-54.29l-20.79-21.65v-20.08h19.64l8.06,9.33c5.3,6.13,12.93,9.65,20.96,9.65h9.24c5.41,0,10.65-1.96,14.86-5.56h0c5.55-4.75,8.78-11.89,8.78-19.44v-2.15c0-6.81-2.63-13.33-7.28-18.05l-1.46-1.48c-4.4-4.46-10.26-6.95-16.35-6.95h-21.38l-15.42-19.43"/>
    <polyline class="st35" points="209.38 -266.39 223.82 -279.91 249.81 -252.88 237.1 -239.36"/>
    <path class="st31" d="M205.92-244.62l-10.49-21.13-22.48.24c-6.41.07-12.6-2.48-17.27-7.12l-1.55-1.54c-4.94-4.91-7.78-11.73-7.85-18.9l-.02-2.26c-.08-7.94,3.23-15.49,9.02-20.54h0c4.38-3.83,9.88-5.95,15.57-6.01l8.32-.09c9.53-.1,18.84,2.9,26.57,8.57h0c4.54,3.33,7.23,8.68,7.23,14.38v5.2h20.69v-21.92l-26.57-25.86h-53.71l-27.14,27.62v41.14l24.83,28.21"/>
    <path class="st53" d="M222.71-237.59l20.79,27.62v42.32l-27.14,26.45h-54.29l-20.79-21.65v-20.08h19.64l8.06,9.33c5.3,6.13,12.93,9.65,20.96,9.65h9.24c5.41,0,10.65-1.96,14.86-5.56h0c5.55-4.75,8.78-11.89,8.78-19.44v-2.15c0-6.81-2.63-13.33-7.28-18.05l-1.46-1.48c-4.4-4.46-10.26-6.95-16.35-6.95h-21.38l-15.42-19.43,61.8-.59Z"/>
    <path class="st3" d="M267.81-300.48"/>
    <rect class="st25" x="865.63" y="-265.49" width="259.9" height="248.57"/>
    <polyline class="st27" points="1025.03 -162.39 1039.47 -175.91 1065.46 -148.87 1052.75 -135.35"/>
    <path class="st9" d="M913.6-131.82"/>
    <path class="st55" d="M1021.57-140.62l-10.49-21.13-22.48.24c-6.41.07-12.6-2.48-17.27-7.12l-1.55-1.54c-4.94-4.91-7.78-11.73-7.85-18.9l-.02-2.26c-.08-7.94,3.23-15.49,9.02-20.54h0c4.38-3.83,9.88-5.95,15.57-6.01l8.32-.09c9.53-.1,18.84,2.9,26.57,8.57h0c4.54,3.33,7.23,8.68,7.23,14.38v5.2h20.69v-21.92l-26.57-25.86h-53.71l-27.14,27.62v41.14l24.83,28.21,61.8-.59,20.79,27.62v42.32l-27.14,26.45h-54.29l-20.79-21.65v-20.08h19.64l8.06,9.33c5.3,6.13,12.93,9.65,20.96,9.65h9.24c5.41,0,10.65-1.96,14.86-5.56h0c5.55-4.75,8.78-11.89,8.78-19.44v-2.15c0-6.81-2.63-13.33-7.28-18.05l-1.46-1.48c-4.4-4.46-10.26-6.95-16.35-6.95h-21.38l-15.42-19.43"/>
    <rect class="st13" x="1505.27" y="33.09" width="297.44" height="302.69"/>
    <polyline class="st7" points="1683.44 169.1 1697.88 155.58 1723.87 182.62 1711.16 196.14"/>
    <path class="st15" d="M1679.98,190.87l-10.49-21.13-22.48.24c-6.41.07-12.6-2.48-17.27-7.12l-1.55-1.54c-4.94-4.91-7.78-11.73-7.85-18.9l-.02-2.26c-.08-7.94,3.23-15.49,9.02-20.54h0c4.38-3.83,9.88-5.95,15.57-6.01l8.32-.09c9.53-.1,18.84,2.9,26.57,8.57h0c4.54,3.33,7.23,8.68,7.23,14.38v5.2h20.69v-21.92l-26.57-25.86h-53.71l-27.14,27.62v41.14l24.83,28.21,61.8-.59,20.79,27.62v42.32l-27.14,26.45h-54.29l-20.79-21.65v-20.08h19.64l8.06,9.33c5.3,6.13,12.93,9.65,20.96,9.65h9.24c5.41,0,10.65-1.96,14.86-5.56h0c5.55-4.75,8.78-11.89,8.78-19.44v-2.15c0-6.81-2.63-13.33-7.28-18.05l-1.46-1.48c-4.4-4.46-10.26-6.95-16.35-6.95h-21.38l-15.42-19.43"/>
    <rect class="st33" x="370.05" y="45.72" width="259.9" height="248.57"/>
    <polyline class="st43" points="529.46 148.82 543.89 135.3 569.88 162.34 557.18 175.86"/>
    <path class="st9" d="M418.03,179.39"/>
    <path class="st20" d="M525.99,170.59l-10.49-21.13-22.48.24c-6.41.07-12.6-2.48-17.27-7.12l-1.55-1.54c-4.94-4.91-7.78-11.73-7.85-18.9l-.02-2.26c-.08-7.94,3.23-15.49,9.02-20.54h0c4.38-3.83,9.88-5.95,15.57-6.01l8.32-.09c9.53-.1,18.84,2.9,26.57,8.57h0c4.54,3.33,7.23,8.68,7.23,14.38v5.2h20.69v-21.92l-26.57-25.86h-53.71l-27.14,27.62v41.14l24.83,28.21,61.8-.59,20.79,27.62v42.32l-27.14,26.45h-54.29l-20.79-21.65v-20.08h19.64l8.06,9.33c5.3,6.13,12.93,9.65,20.96,9.65h9.24c5.41,0,10.65-1.96,14.86-5.56h0c5.55-4.75,8.78-11.89,8.78-19.44v-2.15c0-6.81-2.63-13.33-7.28-18.05l-1.46-1.48c-4.4-4.46-10.26-6.95-16.35-6.95h-21.38l-15.42-19.43"/>
    <rect class="st39" x="62.44" y="45.72" width="259.9" height="248.57"/>
    <polyline class="st24" points="221.84 148.82 236.28 135.3 262.27 162.34 249.57 175.86"/>
    <path class="st9" d="M110.42,179.39"/>
    <path class="st41" d="M218.38,170.59l-10.49-21.13-22.48.24c-6.41.07-12.6-2.48-17.27-7.12l-1.55-1.54c-4.94-4.91-7.78-11.73-7.85-18.9l-.02-2.26c-.08-7.94,3.23-15.49,9.02-20.54h0c4.38-3.83,9.88-5.95,15.57-6.01l8.32-.09c9.53-.1,18.84,2.9,26.57,8.57h0c4.54,3.33,7.23,8.68,7.23,14.38v5.2h20.69v-21.92l-26.57-25.86h-53.71l-27.14,27.62v41.14l24.83,28.21,61.8-.59,20.79,27.62v42.32l-27.14,26.45h-54.29l-20.79-21.65v-20.08h19.64l8.06,9.33c5.3,6.13,12.93,9.65,20.96,9.65h9.24c5.41,0,10.65-1.96,14.86-5.56h0c5.55-4.75,8.78-11.89,8.78-19.44v-2.15c0-6.81-2.63-13.33-7.28-18.05l-1.46-1.48c-4.4-4.46-10.26-6.95-16.35-6.95h-21.38l-15.42-19.43"/>
    <rect class="st40" x="691.43" y="45.72" width="259.9" height="248.57"/>
    <polyline class="st45" points="850.84 148.82 865.28 135.3 891.27 162.34 878.56 175.86"/>
    <path class="st9" d="M770.05,194.62"/>
    <path class="st52" d="M847.37,170.59l-10.49-21.13-22.48.24c-6.41.07-12.6-2.48-17.27-7.12l-1.55-1.54c-4.94-4.91-7.78-11.73-7.85-18.9l-.02-2.26c-.08-7.94,3.23-15.49,9.02-20.54h0c4.38-3.83,9.88-5.95,15.57-6.01l8.32-.09c9.53-.1,18.84,2.9,26.57,8.57h0c4.54,3.33,7.23,8.68,7.23,14.38v5.2h20.69v-21.92l-26.57-25.86h-53.71l-27.14,27.62v41.14l24.83,28.21,61.8-.59,20.79,27.62v42.32l-27.14,26.45h-54.29l-20.79-21.65v-20.08h19.64l8.06,9.33c5.3,6.13,12.93,9.65,20.96,9.65h9.24c5.41,0,10.65-1.96,14.86-5.56h0c5.55-4.75,8.78-11.89,8.78-19.44v-2.15c0-6.81-2.63-13.33-7.28-18.05l-1.46-1.48c-4.4-4.46-10.26-6.95-16.35-6.95h-21.38l-15.42-19.43"/>
    <line class="st8" x1="62.44" y1="45.72" x2="322.34" y2="294.29"/>
    <line class="st8" x1="370.05" y1="45.72" x2="629.95" y2="294.29"/>
    <line class="st8" x1="691.43" y1="45.72" x2="951.33" y2="294.29"/>
    <polyline class="st26" points="1338.87 608.49 1353.31 594.97 1379.3 622.01 1366.6 635.53"/>
    <path class="st37" d="M1335.41,630.26l-10.49-21.13-22.48.24c-6.41.07-12.6-2.48-17.27-7.12l-1.55-1.54c-4.94-4.91-7.78-11.73-7.85-18.9l-.02-2.26c-.08-7.94,3.23-15.49,9.02-20.54h0c4.38-3.83,9.88-5.95,15.57-6.01l8.32-.09c9.53-.1,18.84,2.9,26.57,8.57h0c4.54,3.33,7.23,8.68,7.23,14.38v5.2h20.69v-21.92l-26.57-25.86h-53.71l-27.14,27.62v41.14l24.83,28.21"/>
    <path class="st48" d="M1352.2,637.29l20.79,27.62v42.32l-27.14,26.45h-54.29l-20.79-21.65v-20.08h19.64l8.06,9.33c5.3,6.13,12.93,9.65,20.96,9.65h9.24c5.41,0,10.65-1.96,14.86-5.56h0c5.55-4.75,8.78-11.89,8.78-19.44v-2.15c0-6.81-2.63-13.33-7.28-18.05l-1.46-1.48c-4.4-4.46-10.26-6.95-16.35-6.95h-21.38l-15.42-19.43,61.8-.59Z"/>
    <path class="st12" d="M1397.3,574.4"/>
    <rect x="89.96" y="487.48" width="464.75" height="302.69"/>
    <polyline class="st51" points="368.36 617.64 390.92 604.13 431.53 631.16 411.68 644.68"/>
    <path class="st29" d="M364.55,638.88l-18-20.6-35.13.24c-10.01.07-19.68-2.48-26.99-7.12l-2.43-1.54c-7.72-4.91-12.16-11.73-12.27-18.9l-.04-2.26c-.13-7.94,5.05-15.49,14.09-20.54h0c6.85-3.83,15.43-5.95,24.32-6.01l13.01-.09c14.89-.1,29.44,2.9,41.52,8.57h0c7.09,3.33,11.3,8.68,11.3,14.38v5.2h32.33v-21.92l-41.51-25.86h-83.93l-42.41,27.62v41.14l38.8,28.21,96.56-.59,32.49,27.62v42.32l-42.41,26.45h-84.83l-32.49-21.65v-20.08h30.68l12.59,9.33c8.28,6.13,20.21,9.65,32.75,9.65h14.44c8.45,0,16.65-1.96,23.22-5.56h0c8.67-4.75,13.71-11.89,13.71-19.44v-2.15c0-6.81-4.11-13.33-11.38-18.05l-2.29-1.48c-6.88-4.46-16.03-6.95-25.55-6.95h-33.41l-24.09-19.43"/>
    <line class="st6" x1="89.96" y1="487.48" x2="554.71" y2="790.17"/>
    <rect x="621.33" y="356.93" width="297.44" height="563.79"/>
    <polyline class="st22" points="799.5 599.37 813.94 574.19 839.93 624.55 827.23 649.73"/>
    <path class="st28" d="M797.06,638.93l-11.52-38.37-22.48.45c-6.41.13-12.6-4.62-17.27-13.27l-1.55-2.87c-4.94-9.14-7.78-21.85-7.85-35.2l-.02-4.21c-.08-14.79,3.23-28.85,9.02-38.26h0c4.38-7.13,9.88-11.09,15.57-11.2l8.32-.17c9.53-.19,18.84,5.4,26.57,15.97h0c4.54,6.2,7.23,16.17,7.23,26.78v9.69h20.69v-40.82l-26.57-48.17h-53.71l-27.14,51.45v76.63l24.83,52.55,61.8-1.09,20.79,51.45v78.82l-27.14,49.26h-54.29l-20.79-40.33v-37.4h19.64l8.06,17.38c5.3,11.43,12.93,17.98,20.96,17.98h9.24c5.41,0,10.65-3.65,14.86-10.35h0c5.55-8.84,8.78-22.15,8.78-36.21v-4c0-12.69-2.63-24.84-7.28-33.62l-1.46-2.76c-4.4-8.31-10.26-12.95-16.35-12.95h-21.38l-15.42-36.19"/>
    <line class="st6" x1="621.33" y1="356.93" x2="918.77" y2="920.72"/>
  </g>
</svg>